G04 #@! TF.GenerationSoftware,KiCad,Pcbnew,10.0.3*
G04 #@! TF.CreationDate,2026-09-17T13:11:37-05:00*
G04 #@! TF.ProjectId,keyboard_v0,6b657962-6f61-4726-945f-76302e6b6963,rev?*
G04 #@! TF.SameCoordinates,Original*
G04 #@! TF.FileFunction,Soldermask,Top*
G04 #@! TF.FilePolarity,Negative*
%FSLAX46Y46*%
G04 Gerber Fmt 4.6, Leading zero omitted, Abs format (unit mm)*
G04 Created by KiCad (PCBNEW 10.0.3) date 2026-09-17 13:11:37*
%MOMM*%
%LPD*%
G01*
G04 APERTURE LIST*
G04 Aperture macros list*
%AMRoundRect*
0 Rectangle with rounded corners*
0 $1 Rounding radius*
0 $2 $3 $4 $5 $6 $7 $8 $9 X,Y pos of 4 corners*
0 Add a 4 corners polygon primitive as box body*
4,1,4,$2,$3,$4,$5,$6,$7,$8,$9,$2,$3,0*
0 Add four circle primitives for the rounded corners*
1,1,$1+$1,$2,$3*
1,1,$1+$1,$4,$5*
1,1,$1+$1,$6,$7*
1,1,$1+$1,$8,$9*
0 Add four rect primitives between the rounded corners*
20,1,$1+$1,$2,$3,$4,$5,0*
20,1,$1+$1,$4,$5,$6,$7,0*
20,1,$1+$1,$6,$7,$8,$9,0*
20,1,$1+$1,$8,$9,$2,$3,0*%
G04 Aperture macros list end*
%ADD10C,1.701800*%
%ADD11C,3.000000*%
%ADD12C,3.987800*%
%ADD13RoundRect,0.200000X-1.075000X-1.050000X1.075000X-1.050000X1.075000X1.050000X-1.075000X1.050000X0*%
%ADD14C,3.048000*%
%ADD15C,0.650000*%
%ADD16O,1.204000X2.304000*%
%ADD17O,1.204000X2.004000*%
G04 APERTURE END LIST*
D10*
X241300000Y-78581250D03*
D11*
X243840000Y-73501250D03*
D12*
X246380000Y-78581250D03*
D11*
X250190000Y-76041250D03*
D10*
X251460000Y-78581250D03*
D13*
X253465000Y-76041250D03*
X240538000Y-73501250D03*
D10*
X231765000Y-97631250D03*
D11*
X234305000Y-92551250D03*
D12*
X236845000Y-97631250D03*
D11*
X240655000Y-95091250D03*
D10*
X241925000Y-97631250D03*
D13*
X243930000Y-95091250D03*
X231003000Y-92551250D03*
D10*
X65087500Y-59536450D03*
D11*
X67627500Y-54456450D03*
D12*
X70167500Y-59536450D03*
D11*
X73977500Y-56996450D03*
D10*
X75247500Y-59536450D03*
D13*
X77252500Y-56996450D03*
X64325500Y-54456450D03*
D14*
X41550750Y-90651450D03*
D12*
X41550750Y-105891450D03*
D10*
X48408750Y-97636450D03*
D11*
X50948750Y-92556450D03*
D12*
X53488750Y-97636450D03*
D11*
X57298750Y-95096450D03*
D10*
X58568750Y-97636450D03*
D14*
X65426750Y-90651450D03*
D12*
X65426750Y-105891450D03*
D13*
X60573750Y-95096450D03*
X47646750Y-92556450D03*
D10*
X55552500Y-40481250D03*
D11*
X58092500Y-35401250D03*
D12*
X60632500Y-40481250D03*
D11*
X64442500Y-37941250D03*
D10*
X65712500Y-40481250D03*
D13*
X67717500Y-37941250D03*
X54790500Y-35401250D03*
D10*
X86508750Y-116686450D03*
D11*
X89048750Y-111606450D03*
D12*
X91588750Y-116686450D03*
D11*
X95398750Y-114146450D03*
D10*
X96668750Y-116686450D03*
D13*
X98673750Y-114146450D03*
X85746750Y-111606450D03*
D10*
X322252500Y-116686450D03*
D11*
X324792500Y-111606450D03*
D12*
X327332500Y-116686450D03*
D11*
X331142500Y-114146450D03*
D10*
X332412500Y-116686450D03*
D13*
X334417500Y-114146450D03*
X321490500Y-111606450D03*
D10*
X43646250Y-78586450D03*
D11*
X46186250Y-73506450D03*
D12*
X48726250Y-78586450D03*
D11*
X52536250Y-76046450D03*
D10*
X53806250Y-78586450D03*
D13*
X55811250Y-76046450D03*
X42884250Y-73506450D03*
D10*
X184150000Y-78586450D03*
D11*
X186690000Y-73506450D03*
D12*
X189230000Y-78586450D03*
D11*
X193040000Y-76046450D03*
D10*
X194310000Y-78586450D03*
D13*
X196315000Y-76046450D03*
X183388000Y-73506450D03*
D10*
X229393750Y-116686450D03*
D11*
X231933750Y-111606450D03*
D12*
X234473750Y-116686450D03*
D11*
X238283750Y-114146450D03*
D10*
X239553750Y-116686450D03*
D13*
X241558750Y-114146450D03*
X228631750Y-111606450D03*
D10*
X136525000Y-97631250D03*
D11*
X139065000Y-92551250D03*
D12*
X141605000Y-97631250D03*
D11*
X145415000Y-95091250D03*
D10*
X146685000Y-97631250D03*
D13*
X148690000Y-95091250D03*
X135763000Y-92551250D03*
D10*
X160337500Y-59536450D03*
D11*
X162877500Y-54456450D03*
D12*
X165417500Y-59536450D03*
D11*
X169227500Y-56996450D03*
D10*
X170497500Y-59536450D03*
D13*
X172502500Y-56996450D03*
X159575500Y-54456450D03*
D10*
X217477500Y-59536450D03*
D11*
X220017500Y-54456450D03*
D12*
X222557500Y-59536450D03*
D11*
X226367500Y-56996450D03*
D10*
X227637500Y-59536450D03*
D13*
X229642500Y-56996450D03*
X216715500Y-54456450D03*
D10*
X298450000Y-59531250D03*
D11*
X300990000Y-54451250D03*
D12*
X303530000Y-59531250D03*
D11*
X307340000Y-56991250D03*
D10*
X308610000Y-59531250D03*
D13*
X310615000Y-56991250D03*
X297688000Y-54451250D03*
D10*
X274627500Y-59536450D03*
D11*
X277167500Y-54456450D03*
D12*
X279707500Y-59536450D03*
D11*
X283517500Y-56996450D03*
D10*
X284787500Y-59536450D03*
D13*
X286792500Y-56996450D03*
X273865500Y-54456450D03*
D10*
X212715000Y-97631250D03*
D11*
X215255000Y-92551250D03*
D12*
X217795000Y-97631250D03*
D11*
X221605000Y-95091250D03*
D10*
X222875000Y-97631250D03*
D13*
X224880000Y-95091250D03*
X211953000Y-92551250D03*
D10*
X84137500Y-59531250D03*
D11*
X86677500Y-54451250D03*
D12*
X89217500Y-59531250D03*
D11*
X93027500Y-56991250D03*
D10*
X94297500Y-59531250D03*
D13*
X96302500Y-56991250D03*
X83375500Y-54451250D03*
D10*
X98425000Y-97631250D03*
D11*
X100965000Y-92551250D03*
D12*
X103505000Y-97631250D03*
D11*
X107315000Y-95091250D03*
D10*
X108585000Y-97631250D03*
D13*
X110590000Y-95091250D03*
X97663000Y-92551250D03*
D10*
X74602500Y-40481250D03*
D11*
X77142500Y-35401250D03*
D12*
X79682500Y-40481250D03*
D11*
X83492500Y-37941250D03*
D10*
X84762500Y-40481250D03*
D13*
X86767500Y-37941250D03*
X73840500Y-35401250D03*
D10*
X103177500Y-59536450D03*
D11*
X105717500Y-54456450D03*
D12*
X108257500Y-59536450D03*
D11*
X112067500Y-56996450D03*
D10*
X113337500Y-59536450D03*
D13*
X115342500Y-56996450D03*
X102415500Y-54456450D03*
D10*
X146050000Y-78586450D03*
D11*
X148590000Y-73506450D03*
D12*
X151130000Y-78586450D03*
D11*
X154940000Y-76046450D03*
D10*
X156210000Y-78586450D03*
D13*
X158215000Y-76046450D03*
X145288000Y-73506450D03*
D10*
X322262500Y-97631250D03*
D11*
X324802500Y-92551250D03*
D12*
X327342500Y-97631250D03*
D11*
X331152500Y-95091250D03*
D10*
X332422500Y-97631250D03*
D13*
X334427500Y-95091250D03*
X321500500Y-92551250D03*
D10*
X303212500Y-116681250D03*
D11*
X305752500Y-111601250D03*
D12*
X308292500Y-116681250D03*
D11*
X312102500Y-114141250D03*
D10*
X313372500Y-116681250D03*
D13*
X315377500Y-114141250D03*
X302450500Y-111601250D03*
D10*
X193665000Y-97631250D03*
D11*
X196205000Y-92551250D03*
D12*
X198745000Y-97631250D03*
D11*
X202555000Y-95091250D03*
D10*
X203825000Y-97631250D03*
D13*
X205830000Y-95091250D03*
X192903000Y-92551250D03*
D10*
X246062500Y-40481250D03*
D11*
X248602500Y-35401250D03*
D12*
X251142500Y-40481250D03*
D11*
X254952500Y-37941250D03*
D10*
X256222500Y-40481250D03*
D13*
X258227500Y-37941250D03*
X245300500Y-35401250D03*
D10*
X322262500Y-40481250D03*
D11*
X324802500Y-35401250D03*
D12*
X327342500Y-40481250D03*
D11*
X331152500Y-37941250D03*
D10*
X332422500Y-40481250D03*
D13*
X334427500Y-37941250D03*
X321500500Y-35401250D03*
D10*
X41265000Y-59536450D03*
D11*
X43805000Y-54456450D03*
D12*
X46345000Y-59536450D03*
D11*
X50155000Y-56996450D03*
D10*
X51425000Y-59536450D03*
D13*
X53430000Y-56996450D03*
X40503000Y-54456450D03*
D10*
X107950000Y-78581250D03*
D11*
X110490000Y-73501250D03*
D12*
X113030000Y-78581250D03*
D11*
X116840000Y-76041250D03*
D10*
X118110000Y-78581250D03*
D13*
X120115000Y-76041250D03*
X107188000Y-73501250D03*
D10*
X150812500Y-40481250D03*
D11*
X153352500Y-35401250D03*
D12*
X155892500Y-40481250D03*
D11*
X159702500Y-37941250D03*
D10*
X160972500Y-40481250D03*
D13*
X162977500Y-37941250D03*
X150050500Y-35401250D03*
D10*
X165100000Y-78581250D03*
D11*
X167640000Y-73501250D03*
D12*
X170180000Y-78581250D03*
D11*
X173990000Y-76041250D03*
D10*
X175260000Y-78581250D03*
D13*
X177265000Y-76041250D03*
X164338000Y-73501250D03*
D10*
X93652500Y-40486450D03*
D11*
X96192500Y-35406450D03*
D12*
X98732500Y-40486450D03*
D11*
X102542500Y-37946450D03*
D10*
X103812500Y-40486450D03*
D13*
X105817500Y-37946450D03*
X92890500Y-35406450D03*
D10*
X284152500Y-116686450D03*
D11*
X286692500Y-111606450D03*
D12*
X289232500Y-116686450D03*
D11*
X293042500Y-114146450D03*
D10*
X294312500Y-116686450D03*
D13*
X296317500Y-114146450D03*
X283390500Y-111606450D03*
D10*
X322252500Y-59536450D03*
D11*
X324792500Y-54456450D03*
D12*
X327332500Y-59536450D03*
D11*
X331142500Y-56996450D03*
D10*
X332412500Y-59536450D03*
D13*
X334417500Y-56996450D03*
X321490500Y-54456450D03*
D10*
X117475000Y-97631250D03*
D11*
X120015000Y-92551250D03*
D12*
X122555000Y-97631250D03*
D11*
X126365000Y-95091250D03*
D10*
X127635000Y-97631250D03*
D13*
X129640000Y-95091250D03*
X116713000Y-92551250D03*
D10*
X253206250Y-116681250D03*
D11*
X255746250Y-111601250D03*
D12*
X258286250Y-116681250D03*
D11*
X262096250Y-114141250D03*
D10*
X263366250Y-116681250D03*
D13*
X265371250Y-114141250D03*
X252444250Y-111601250D03*
D10*
X236537500Y-59531250D03*
D11*
X239077500Y-54451250D03*
D12*
X241617500Y-59531250D03*
D11*
X245427500Y-56991250D03*
D10*
X246697500Y-59531250D03*
D13*
X248702500Y-56991250D03*
X235775500Y-54451250D03*
D10*
X222250000Y-78581250D03*
D11*
X224790000Y-73501250D03*
D12*
X227330000Y-78581250D03*
D11*
X231140000Y-76041250D03*
D10*
X232410000Y-78581250D03*
D13*
X234415000Y-76041250D03*
X221488000Y-73501250D03*
D10*
X131762500Y-40481250D03*
D11*
X134302500Y-35401250D03*
D12*
X136842500Y-40481250D03*
D11*
X140652500Y-37941250D03*
D10*
X141922500Y-40481250D03*
D13*
X143927500Y-37941250D03*
X131000500Y-35401250D03*
D10*
X141287500Y-59536450D03*
D11*
X143827500Y-54456450D03*
D12*
X146367500Y-59536450D03*
D11*
X150177500Y-56996450D03*
D10*
X151447500Y-59536450D03*
D13*
X153452500Y-56996450D03*
X140525500Y-54456450D03*
D10*
X322262500Y-78581250D03*
D11*
X324802500Y-73501250D03*
D12*
X327342500Y-78581250D03*
D11*
X331152500Y-76041250D03*
D10*
X332422500Y-78581250D03*
D13*
X334427500Y-76041250D03*
X321500500Y-73501250D03*
D10*
X303212500Y-97631250D03*
D11*
X305752500Y-92551250D03*
D12*
X308292500Y-97631250D03*
D11*
X312102500Y-95091250D03*
D10*
X313372500Y-97631250D03*
D13*
X315377500Y-95091250D03*
X302450500Y-92551250D03*
D14*
X113019800Y-109676050D03*
D12*
X113019800Y-124916050D03*
D10*
X157939800Y-116661050D03*
D11*
X160479800Y-111581050D03*
D12*
X163019800Y-116661050D03*
D11*
X166829800Y-114121050D03*
D10*
X168099800Y-116661050D03*
D14*
X213019800Y-109676050D03*
D12*
X213019800Y-124916050D03*
D13*
X170104800Y-114121050D03*
X157177800Y-111581050D03*
D10*
X62696250Y-116686450D03*
D11*
X65236250Y-111606450D03*
D12*
X67776250Y-116686450D03*
D11*
X71586250Y-114146450D03*
D10*
X72856250Y-116686450D03*
D13*
X74861250Y-114146450D03*
X61934250Y-111606450D03*
D10*
X179387500Y-59531250D03*
D11*
X181927500Y-54451250D03*
D12*
X184467500Y-59531250D03*
D11*
X188277500Y-56991250D03*
D10*
X189547500Y-59531250D03*
D13*
X191552500Y-56991250D03*
X178625500Y-54451250D03*
D10*
X79375000Y-97631250D03*
D11*
X81915000Y-92551250D03*
D12*
X84455000Y-97631250D03*
D11*
X88265000Y-95091250D03*
D10*
X89535000Y-97631250D03*
D13*
X91540000Y-95091250D03*
X78613000Y-92551250D03*
D14*
X284406500Y-71601450D03*
D12*
X284406500Y-86841450D03*
D10*
X291264500Y-78586450D03*
D11*
X293804500Y-73506450D03*
D12*
X296344500Y-78586450D03*
D11*
X300154500Y-76046450D03*
D10*
X301424500Y-78586450D03*
D14*
X308282500Y-71601450D03*
D12*
X308282500Y-86841450D03*
D13*
X303429500Y-76046450D03*
X290502500Y-73506450D03*
D10*
X169852500Y-40486450D03*
D11*
X172392500Y-35406450D03*
D12*
X174932500Y-40486450D03*
D11*
X178742500Y-37946450D03*
D10*
X180012500Y-40486450D03*
D13*
X182017500Y-37946450D03*
X169090500Y-35406450D03*
D10*
X207962500Y-40481250D03*
D11*
X210502500Y-35401250D03*
D12*
X213042500Y-40481250D03*
D11*
X216852500Y-37941250D03*
D10*
X218122500Y-40481250D03*
D13*
X220127500Y-37941250D03*
X207200500Y-35401250D03*
D10*
X227012500Y-40481250D03*
D11*
X229552500Y-35401250D03*
D12*
X232092500Y-40481250D03*
D11*
X235902500Y-37941250D03*
D10*
X237172500Y-40481250D03*
D13*
X239177500Y-37941250D03*
X226250500Y-35401250D03*
D10*
X36502500Y-40486450D03*
D11*
X39042500Y-35406450D03*
D12*
X41582500Y-40486450D03*
D11*
X45392500Y-37946450D03*
D10*
X46662500Y-40486450D03*
D13*
X48667500Y-37946450D03*
X35740500Y-35406450D03*
D14*
X286819500Y-33501450D03*
D12*
X286819500Y-48741450D03*
D10*
X293677500Y-40486450D03*
D11*
X296217500Y-35406450D03*
D12*
X298757500Y-40486450D03*
D11*
X302567500Y-37946450D03*
D10*
X303837500Y-40486450D03*
D14*
X310695500Y-33501450D03*
D12*
X310695500Y-48741450D03*
D13*
X305842500Y-37946450D03*
X292915500Y-35406450D03*
D10*
X265102500Y-40486450D03*
D11*
X267642500Y-35406450D03*
D12*
X270182500Y-40486450D03*
D11*
X273992500Y-37946450D03*
D10*
X275262500Y-40486450D03*
D13*
X277267500Y-37946450D03*
X264340500Y-35406450D03*
D10*
X188912500Y-40486450D03*
D11*
X191452500Y-35406450D03*
D12*
X193992500Y-40486450D03*
D11*
X197802500Y-37946450D03*
D10*
X199072500Y-40486450D03*
D13*
X201077500Y-37946450D03*
X188150500Y-35406450D03*
D10*
X250815000Y-97631250D03*
D11*
X253355000Y-92551250D03*
D12*
X255895000Y-97631250D03*
D11*
X259705000Y-95091250D03*
D10*
X260975000Y-97631250D03*
D13*
X262980000Y-95091250D03*
X250053000Y-92551250D03*
D10*
X260350000Y-78581250D03*
D11*
X262890000Y-73501250D03*
D12*
X265430000Y-78581250D03*
D11*
X269240000Y-76041250D03*
D10*
X270510000Y-78581250D03*
D13*
X272515000Y-76041250D03*
X259588000Y-73501250D03*
D10*
X198437500Y-59536450D03*
D11*
X200977500Y-54456450D03*
D12*
X203517500Y-59536450D03*
D11*
X207327500Y-56996450D03*
D10*
X208597500Y-59536450D03*
D13*
X210602500Y-56996450D03*
X197675500Y-54456450D03*
D10*
X88900000Y-78581250D03*
D11*
X91440000Y-73501250D03*
D12*
X93980000Y-78581250D03*
D11*
X97790000Y-76041250D03*
D10*
X99060000Y-78581250D03*
D13*
X101065000Y-76041250D03*
X88138000Y-73501250D03*
D10*
X122237500Y-59536450D03*
D11*
X124777500Y-54456450D03*
D12*
X127317500Y-59536450D03*
D11*
X131127500Y-56996450D03*
D10*
X132397500Y-59536450D03*
D13*
X134402500Y-56996450D03*
X121475500Y-54456450D03*
D10*
X69850000Y-78581250D03*
D11*
X72390000Y-73501250D03*
D12*
X74930000Y-78581250D03*
D11*
X78740000Y-76041250D03*
D10*
X80010000Y-78581250D03*
D13*
X82015000Y-76041250D03*
X69088000Y-73501250D03*
D10*
X203200000Y-78581250D03*
D11*
X205740000Y-73501250D03*
D12*
X208280000Y-78581250D03*
D11*
X212090000Y-76041250D03*
D10*
X213360000Y-78581250D03*
D13*
X215365000Y-76041250D03*
X202438000Y-73501250D03*
D10*
X127000000Y-78586450D03*
D11*
X129540000Y-73506450D03*
D12*
X132080000Y-78586450D03*
D11*
X135890000Y-76046450D03*
D10*
X137160000Y-78586450D03*
D13*
X139165000Y-76046450D03*
X126238000Y-73506450D03*
D10*
X155565000Y-97631250D03*
D11*
X158105000Y-92551250D03*
D12*
X160645000Y-97631250D03*
D11*
X164455000Y-95091250D03*
D10*
X165725000Y-97631250D03*
D13*
X167730000Y-95091250D03*
X154803000Y-92551250D03*
D10*
X277008750Y-97631250D03*
D11*
X279548750Y-92551250D03*
D12*
X282088750Y-97631250D03*
D11*
X285898750Y-95091250D03*
D10*
X287168750Y-97631250D03*
D13*
X289173750Y-95091250D03*
X276246750Y-92551250D03*
D10*
X38883750Y-116686450D03*
D11*
X41423750Y-111606450D03*
D12*
X43963750Y-116686450D03*
D11*
X47773750Y-114146450D03*
D10*
X49043750Y-116686450D03*
D13*
X51048750Y-114146450D03*
X38121750Y-111606450D03*
D10*
X174615000Y-97631250D03*
D11*
X177155000Y-92551250D03*
D12*
X179695000Y-97631250D03*
D11*
X183505000Y-95091250D03*
D10*
X184775000Y-97631250D03*
D13*
X186780000Y-95091250D03*
X173853000Y-92551250D03*
D10*
X255587500Y-59531250D03*
D11*
X258127500Y-54451250D03*
D12*
X260667500Y-59531250D03*
D11*
X264477500Y-56991250D03*
D10*
X265747500Y-59531250D03*
D13*
X267752500Y-56991250D03*
X254825500Y-54451250D03*
D10*
X112712500Y-40481250D03*
D11*
X115252500Y-35401250D03*
D12*
X117792500Y-40481250D03*
D11*
X121602500Y-37941250D03*
D10*
X122872500Y-40481250D03*
D13*
X124877500Y-37941250D03*
X111950500Y-35401250D03*
D15*
X181474500Y-31282700D03*
X187254500Y-31282700D03*
D16*
X180044500Y-31782700D03*
X188684500Y-31782700D03*
D17*
X180044500Y-27602700D03*
X188684500Y-27602700D03*
M02*
