M48
; DRILL file KiCad 10.0.3 date 2026-09-17T13:12:38
; FORMAT={-:-/ absolute / inch / decimal}
; #@! TF.CreationDate,2026-09-17T13:12:38-05:00
; #@! TF.GenerationSoftware,Kicad,Pcbnew,10.0.3
; #@! TF.FileFunction,Plated,1,2,PTH
FMAT,2
INCH
; #@! TA.AperFunction,Plated,PTH,ViaDrill
T1C0.0118
; #@! TA.AperFunction,Plated,PTH,ComponentDrill
T2C0.0236
; #@! TA.AperFunction,Plated,PTH,ComponentDrill
T3C0.0394
%
G90
G05
T1
X1.327Y-1.276
X1.327Y-3.0871
X1.327Y-4.9571
X1.4716Y-4.987
X1.916Y-1.494
X2.0098Y-4.494
X2.075Y-1.9256
X2.075Y-3.4808
X2.1035Y-2.244
X2.1973Y-2.994
X2.2325Y-4.4256
X2.3848Y-3.744
X2.4284Y-4.9592
X2.666Y-1.4937
X2.8033Y-1.276
X2.8624Y-2.6934
X2.9473Y-4.494
X3.0414Y-2.244
X3.0789Y-4.2091
X3.2289Y-2.9937
X3.3756Y-4.9476
X3.416Y-1.4937
X3.5514Y-1.9256
X3.6039Y-3.7437
X3.7482Y-3.4414
X3.7914Y-2.2437
X3.8848Y-4.494
X3.9789Y-2.9937
X4.166Y-1.494
X4.2797Y-2.6934
X4.2994Y-1.276
X4.2994Y-4.5241
X4.3539Y-3.7437
X4.541Y-2.244
X4.5906Y-4.774
X4.7289Y-2.9937
X4.9164Y-1.4937
X5.0474Y-1.9453
X5.1039Y-3.7437
X5.2443Y-3.4611
X5.2914Y-2.244
X5.3576Y-4.906
X5.4789Y-2.994
X5.6664Y-1.4937
X5.8152Y-1.276
X5.8481Y-4.3405
X5.8539Y-3.7437
X5.8594Y-4.4287
X5.8742Y-2.713
X5.8996Y-4.774
X5.9952Y-4.5645
X6.0414Y-2.244
X6.1186Y-4.901
X6.1246Y-4.694
X6.1446Y-4.7303
X6.1666Y-4.8905
X6.2146Y-2.5962
X6.2289Y-2.994
X6.4164Y-1.4937
X6.5632Y-1.9453
X6.6035Y-3.7437
X6.6346Y-4.284
X6.6846Y-1.8402
X6.6946Y-4.104
X6.697Y-4.494
X6.7646Y-3.864
X6.7646Y-4.239
X6.7696Y-4.604
X6.7914Y-2.244
X6.8096Y-4.284
X6.8946Y-4.649
X6.9296Y-4.669
X6.9789Y-2.9937
X6.9796Y-4.514
X7.012Y-1.2623
X7.0296Y-4.514
X7.0846Y-4.514
X7.138Y-1.0713
X7.166Y-1.494
X7.1776Y-1.325
X7.1874Y-4.515
X7.2146Y-4.0987
X7.2146Y-4.664
X7.2146Y-4.864
X7.2167Y-1.7997
X7.217Y-1.6737
X7.2406Y-1.506
X7.2496Y-4.604
X7.2516Y-4.189
X7.2561Y-1.1776
X7.2696Y-4.424
X7.2696Y-4.4555
X7.2696Y-4.4869
X7.2746Y-1.508
X7.3309Y-2.7327
X7.3356Y-1.6525
X7.3406Y-1.326
X7.3456Y-1.787
X7.3535Y-3.7437
X7.3821Y-1.0713
X7.388Y-1.1796
X7.4246Y-4.134
X7.4246Y-4.2228
X7.4246Y-4.284
X7.4644Y-4.6338
X7.4687Y-1.2721
X7.4906Y-4.1406
X7.5414Y-2.2437
X7.5474Y-3.4414
X7.5676Y-4.1406
X7.5946Y-3.6437
X7.6246Y-4.424
X7.6537Y-4.0713
X7.6556Y-4.1611
X7.656Y-3.78
X7.7049Y-3.7327
X7.7196Y-4.424
X7.7207Y-3.9847
X7.7289Y-2.994
X7.7336Y-4.272
X7.7528Y-4.887
X7.7596Y-4.4248
X7.8016Y-3.987
X7.8046Y-4.233
X7.8495Y-4.452
X7.9164Y-1.494
X8.0396Y-1.276
X8.1035Y-3.7437
X8.113Y-4.269
X8.2914Y-2.244
X8.4411Y-4.7055
X8.4789Y-2.9937
X8.6246Y-4.824
X8.6664Y-1.4937
X8.7089Y-4.2288
X8.8073Y-1.9453
X8.8535Y-3.7437
X8.8711Y-4.8872
X8.8927Y-4.9101
X9.041Y-2.244
X9.2289Y-2.9937
X9.4164Y-1.4937
X9.5102Y-4.494
X9.5553Y-1.276
X9.6035Y-3.7437
X9.6341Y-3.4611
X9.7914Y-2.2437
X9.7988Y-4.9398
X9.9789Y-2.9937
X10.1664Y-1.4937
X10.323Y-1.9453
X10.3535Y-3.7437
X10.4477Y-4.4937
X10.5414Y-2.2437
X10.7289Y-2.9937
X10.7758Y-4.2485
X10.916Y-1.494
X11.0336Y-4.929
X11.0907Y-1.276
X11.1301Y-3.0477
X11.291Y-2.244
X11.3848Y-3.7437
X11.666Y-4.494
X11.76Y-1.9256
X11.7782Y-4.9655
X11.946Y-2.994
X12.041Y-1.494
X12.2289Y-2.2437
X12.4096Y-3.028
X12.4164Y-3.7437
X12.4164Y-4.4937
X12.5081Y-1.276
X12.5636Y-4.978
X12.7049Y-4.7603
X12.9608Y-1.906
X13.166Y-2.244
X13.166Y-4.494
X13.1664Y-1.4937
X13.1664Y-2.9937
X13.1664Y-3.7437
T3
X5.6246Y-4.464
X5.6246Y-4.564
X5.6246Y-4.664
X5.7246Y-4.464
X5.7246Y-4.564
X5.7246Y-4.664
T2
G00X7.0884Y-1.071
M15
G01X7.0884Y-1.1025
M16
G05
G00X7.0884Y-1.2296
M15
G01X7.0884Y-1.2729
M16
G05
G00X7.4285Y-1.071
M15
G01X7.4285Y-1.1025
M16
G05
G00X7.4285Y-1.2296
M15
G01X7.4285Y-1.2729
M16
G05
M30
