M48
; DRILL file KiCad 10.0.3 date 2026-09-17T13:12:38
; FORMAT={-:-/ absolute / inch / decimal}
; #@! TF.CreationDate,2026-09-17T13:12:38-05:00
; #@! TF.GenerationSoftware,Kicad,Pcbnew,10.0.3
; #@! TF.FileFunction,NonPlated,1,2,NPTH
FMAT,2
INCH
; #@! TA.AperFunction,NonPlated,NPTH,ComponentDrill
T1C0.0256
; #@! TA.AperFunction,NonPlated,NPTH,ComponentDrill
T2C0.0670
; #@! TA.AperFunction,NonPlated,NPTH,ComponentDrill
T3C0.1181
; #@! TA.AperFunction,NonPlated,NPTH,ComponentDrill
T4C0.1200
; #@! TA.AperFunction,NonPlated,NPTH,ComponentDrill
T5C0.1570
%
G90
G05
T1
X7.1447Y-1.2316
X7.3722Y-1.2316
T2
X1.4371Y-1.594
X1.5309Y-4.594
X1.6246Y-2.344
X1.7184Y-3.094
X1.8371Y-1.594
X1.9059Y-3.844
X1.9309Y-4.594
X2.0246Y-2.344
X2.1184Y-3.094
X2.1871Y-1.5938
X2.3059Y-3.844
X2.4684Y-4.594
X2.5625Y-2.344
X2.5871Y-1.5938
X2.75Y-3.0938
X2.8684Y-4.594
X2.9371Y-1.5938
X2.9625Y-2.344
X3.125Y-3.8438
X3.15Y-3.0938
X3.3125Y-2.3438
X3.3371Y-1.5938
X3.4059Y-4.594
X3.5Y-3.0938
X3.525Y-3.8438
X3.6871Y-1.594
X3.7125Y-2.3438
X3.8059Y-4.594
X3.875Y-3.8438
X3.9Y-3.0938
X4.0621Y-2.344
X4.0871Y-1.594
X4.25Y-3.0938
X4.275Y-3.8438
X4.4375Y-1.5938
X4.4621Y-2.344
X4.625Y-3.8438
X4.65Y-3.0938
X4.8125Y-2.344
X4.8375Y-1.5938
X5.0Y-3.094
X5.025Y-3.8438
X5.1875Y-1.5938
X5.2125Y-2.344
X5.375Y-3.8438
X5.4Y-3.094
X5.5625Y-2.344
X5.5875Y-1.5938
X5.75Y-3.094
X5.775Y-3.8438
X5.9375Y-1.5938
X5.9625Y-2.344
X6.1246Y-3.8438
X6.15Y-3.094
X6.2181Y-4.593
X6.3125Y-2.344
X6.3375Y-1.5938
X6.5Y-3.0938
X6.5246Y-3.8438
X6.6181Y-4.593
X6.6871Y-1.594
X6.7125Y-2.344
X6.8746Y-3.8438
X6.9Y-3.0938
X7.0625Y-2.3438
X7.0871Y-1.594
X7.25Y-3.094
X7.2746Y-3.8438
X7.4375Y-1.594
X7.4625Y-2.3438
X7.6246Y-3.8438
X7.65Y-3.094
X7.8125Y-2.344
X7.8375Y-1.594
X8.0Y-3.0938
X8.0246Y-3.8438
X8.1875Y-1.5938
X8.2125Y-2.344
X8.3746Y-3.8438
X8.4Y-3.0938
X8.5621Y-2.344
X8.5875Y-1.5938
X8.75Y-3.0938
X8.7746Y-3.8438
X8.9375Y-1.5938
X8.9621Y-2.344
X9.0312Y-4.594
X9.1246Y-3.8438
X9.15Y-3.0938
X9.3125Y-2.3438
X9.3375Y-1.5938
X9.4313Y-4.594
X9.5Y-3.0938
X9.5246Y-3.8438
X9.6875Y-1.5938
X9.7125Y-2.3438
X9.8746Y-3.8438
X9.9Y-3.0938
X9.9688Y-4.5938
X10.0625Y-2.3438
X10.0875Y-1.5938
X10.25Y-3.0938
X10.2746Y-3.8438
X10.3688Y-4.5938
X10.4371Y-1.594
X10.4625Y-2.3438
X10.65Y-3.0938
X10.8121Y-2.344
X10.8371Y-1.594
X10.9059Y-3.8438
X11.1871Y-4.594
X11.2121Y-2.344
X11.3059Y-3.8438
X11.4671Y-3.094
X11.5621Y-1.594
X11.5871Y-4.594
X11.75Y-2.3438
X11.8671Y-3.094
X11.9375Y-3.8438
X11.9375Y-4.5938
X11.9621Y-1.594
X12.15Y-2.3438
X12.3375Y-3.8438
X12.3375Y-4.5938
X12.6871Y-2.344
X12.6871Y-4.594
X12.6875Y-1.5938
X12.6875Y-3.0938
X12.6875Y-3.8438
X13.0871Y-2.344
X13.0871Y-4.594
X13.0875Y-1.5938
X13.0875Y-3.0938
X13.0875Y-3.8438
T3
X1.5371Y-1.394
X1.6309Y-4.394
X1.7246Y-2.144
X1.7871Y-1.494
X1.8184Y-2.894
X1.8809Y-4.494
X1.9746Y-2.244
X2.0059Y-3.644
X2.0684Y-2.994
X2.2559Y-3.744
X2.2871Y-1.3938
X2.5371Y-1.4937
X2.5684Y-4.394
X2.6625Y-2.144
X2.8184Y-4.494
X2.85Y-2.8937
X2.9125Y-2.244
X3.0371Y-1.3938
X3.1Y-2.9937
X3.225Y-3.6437
X3.2871Y-1.4937
X3.4125Y-2.1437
X3.475Y-3.7437
X3.5059Y-4.394
X3.6Y-2.8937
X3.6625Y-2.2437
X3.7559Y-4.494
X3.7871Y-1.394
X3.85Y-2.9937
X3.975Y-3.6437
X4.0371Y-1.494
X4.1621Y-2.144
X4.225Y-3.7437
X4.35Y-2.8937
X4.4121Y-2.244
X4.5375Y-1.3938
X4.6Y-2.9937
X4.725Y-3.6437
X4.7875Y-1.4937
X4.9125Y-2.144
X4.975Y-3.7437
X5.1Y-2.894
X5.1625Y-2.244
X5.2875Y-1.3938
X5.35Y-2.994
X5.475Y-3.6437
X5.5375Y-1.4937
X5.6625Y-2.144
X5.725Y-3.7437
X5.85Y-2.894
X5.9125Y-2.244
X6.0375Y-1.3938
X6.1Y-2.994
X6.2246Y-3.6437
X6.2875Y-1.4937
X6.3181Y-4.393
X6.4125Y-2.144
X6.4746Y-3.7437
X6.5681Y-4.493
X6.6Y-2.8937
X6.6625Y-2.244
X6.7871Y-1.394
X6.85Y-2.9937
X6.9746Y-3.6437
X7.0371Y-1.494
X7.1625Y-2.1437
X7.2246Y-3.7437
X7.35Y-2.894
X7.4125Y-2.2437
X7.5375Y-1.394
X7.6Y-2.994
X7.7246Y-3.6437
X7.7875Y-1.494
X7.9125Y-2.144
X7.9746Y-3.7437
X8.1Y-2.8937
X8.1625Y-2.244
X8.2875Y-1.3938
X8.35Y-2.9937
X8.4746Y-3.6437
X8.5375Y-1.4937
X8.6621Y-2.144
X8.7246Y-3.7437
X8.85Y-2.8937
X8.9121Y-2.244
X9.0375Y-1.3938
X9.1Y-2.9937
X9.1312Y-4.394
X9.2246Y-3.6437
X9.2875Y-1.4937
X9.3812Y-4.494
X9.4125Y-2.1437
X9.4746Y-3.7437
X9.6Y-2.8937
X9.6625Y-2.2437
X9.7875Y-1.3938
X9.85Y-2.9937
X9.9746Y-3.6437
X10.0375Y-1.4937
X10.0687Y-4.3937
X10.1625Y-2.1437
X10.2246Y-3.7437
X10.3187Y-4.4937
X10.35Y-2.8937
X10.4125Y-2.2437
X10.5371Y-1.394
X10.6Y-2.9937
X10.7871Y-1.494
X10.9121Y-2.144
X11.0059Y-3.6437
X11.1621Y-2.244
X11.2559Y-3.7437
X11.2871Y-4.394
X11.5371Y-4.494
X11.5671Y-2.894
X11.6621Y-1.394
X11.8171Y-2.994
X11.85Y-2.1437
X11.9121Y-1.494
X12.0375Y-3.6437
X12.0375Y-4.3937
X12.1Y-2.2437
X12.2875Y-3.7437
X12.2875Y-4.4937
X12.7871Y-2.144
X12.7871Y-4.394
X12.7875Y-1.3938
X12.7875Y-2.8937
X12.7875Y-3.6437
X13.0371Y-2.244
X13.0371Y-4.494
X13.0375Y-1.4937
X13.0375Y-2.9937
X13.0375Y-3.7437
T4
X1.6359Y-3.569
X2.5759Y-3.569
X4.4496Y-4.318
X8.3866Y-4.318
X11.1971Y-2.819
X11.2921Y-1.319
X12.1371Y-2.819
X12.2321Y-1.319
T5
X1.6359Y-4.169
X1.6371Y-1.594
X1.7309Y-4.594
X1.8246Y-2.344
X1.9184Y-3.094
X2.1059Y-3.844
X2.3871Y-1.5938
X2.5759Y-4.169
X2.6684Y-4.594
X2.7625Y-2.344
X2.95Y-3.0938
X3.1371Y-1.5938
X3.325Y-3.8438
X3.5125Y-2.3438
X3.6059Y-4.594
X3.7Y-3.0938
X3.8871Y-1.594
X4.075Y-3.8438
X4.2621Y-2.344
X4.4496Y-4.918
X4.45Y-3.0938
X4.6375Y-1.5938
X4.825Y-3.8438
X5.0125Y-2.344
X5.2Y-3.094
X5.3875Y-1.5938
X5.575Y-3.8438
X5.7625Y-2.344
X5.95Y-3.094
X6.1375Y-1.5938
X6.3246Y-3.8438
X6.4181Y-4.593
X6.5125Y-2.344
X6.7Y-3.0938
X6.8871Y-1.594
X7.0746Y-3.8438
X7.2625Y-2.3438
X7.45Y-3.094
X7.6375Y-1.594
X7.8246Y-3.8438
X8.0125Y-2.344
X8.2Y-3.0938
X8.3866Y-4.918
X8.3875Y-1.5938
X8.5746Y-3.8438
X8.7621Y-2.344
X8.95Y-3.0938
X9.1375Y-1.5938
X9.2312Y-4.594
X9.3246Y-3.8438
X9.5125Y-2.3438
X9.7Y-3.0938
X9.8875Y-1.5938
X10.0746Y-3.8438
X10.1687Y-4.5938
X10.2625Y-2.3438
X10.45Y-3.0938
X10.6371Y-1.594
X11.0121Y-2.344
X11.1059Y-3.8438
X11.1971Y-3.419
X11.2921Y-1.919
X11.3871Y-4.594
X11.6671Y-3.094
X11.7621Y-1.594
X11.95Y-2.3438
X12.1371Y-3.419
X12.1375Y-3.8438
X12.1375Y-4.5938
X12.2321Y-1.919
X12.8871Y-2.344
X12.8871Y-4.594
X12.8875Y-1.5938
X12.8875Y-3.0938
X12.8875Y-3.8438
M30
